 <svg  version="1.0" xmlns="http://www.w3.org/2000/svg"  width="300.000000pt" height="164.000000pt" viewBox="0 0 300.000000 164.000000"  preserveAspectRatio="xMidYMid meet">  <g transform="translate(0.000000,164.000000) scale(0.100000,-0.100000)" fill="#ff0000" stroke="none"> <path d="M725 1557 c-8 -13 -20 -38 -26 -56 -10 -28 -9 -36 10 -62 l22 -29 -31 0 c-22 0 -30 -5 -29 -17 0 -11 3 -13 6 -5 3 7 22 11 51 10 l47 -1 -42 -4 c-40 -4 -43 -6 -43 -34 0 -19 -5 -29 -15 -29 -8 0 -15 -4 -15 -10 0 -5 6 -9 13 -7 9 1 12 -44 12 -203 l1 -205 -3 193 c-3 191 -4 192 -26 191 -17 -1 -18 -2 -4 -6 15 -4 17 -22 17 -188 0 -172 7 -217 27 -181 4 8 6 104 3 213 -3 109 -2 202 2 207 3 5 4 14 1 21 -6 16 30 29 56 20 11 -3 56 -46 101 -95 45 -50 86 -90 92 -90 15 0 -15 37 -132 162 l-112 118 18 45 c9 25 20 47 23 49 3 2 26 -31 50 -75 47 -83 63 -93 116 -69 15 7 10 8 -16 4 l-36 -6 -48 81 c-26 45 -53 81 -61 81 -7 0 -20 -10 -29 -23z"/> <path d="M1013 1561 c-15 -25 -16 -200 -1 -218 15 -18 67 -16 74 2 15 39 24 5 26 -102 2 -84 6 -117 16 -119 7 -1 8 0 2 3 -6 3 -10 68 -10 174 0 111 -3 168 -10 164 -5 -3 -10 -2 -10 4 0 5 5 13 10 16 6 3 10 2 10 -4 0 -5 39 -11 90 -13 81 -3 111 5 50 14 l-25 3 21 21 c14 14 17 23 10 32 -6 6 -17 18 -24 27 -10 12 -35 15 -115 15 -90 0 -104 -2 -114 -19z m227 -29 l0 -27 -80 3 -80 4 0 -81 0 -81 -30 0 -30 0 0 105 0 105 110 0 110 0 0 -28z"/> <path d="M1275 1570 c-3 -6 0 -12 7 -15 26 -10 423 0 421 10 -4 14 -419 19 -428 5z m323 -7 c-60 -2 -156 -2 -215 0 -60 1 -11 3 107 3 118 0 167 -2 108 -3z"/> <path d="M2184 1526 c-11 -8 -33 -33 -48 -55 -27 -38 -32 -41 -80 -42 l-51 -2 55 -7 c51 -7 56 -6 75 18 45 57 62 70 95 76 l35 6 -57 -55 -56 -55 56 1 c32 1 45 4 30 6 -35 5 -35 12 2 53 35 39 36 46 11 60 -26 14 -43 13 -67 -4z"/> <path d="M1497 1523 c18 -2 50 -2 70 0 21 2 7 4 -32 4 -38 0 -55 -2 -38 -4z"/> <path d="M1698 1523 c45 -2 119 -2 165 0 45 1 8 3 -83 3 -91 0 -128 -2 -82 -3z"/> <path d="M1963 1475 c0 -33 2 -45 4 -27 2 18 2 45 0 60 -2 15 -4 0 -4 -33z"/> <path d="M367 1494 c-22 -22 -24 -29 -14 -45 6 -10 17 -21 24 -23 20 -8 15 24 -4 32 -17 6 -16 9 4 29 22 22 23 22 33 3 6 -11 18 -20 27 -20 13 0 12 5 -7 25 -29 31 -31 31 -63 -1z"/> <path d="M2410 1480 c-13 -8 -13 -11 2 -26 14 -14 20 -15 33 -4 12 10 13 16 4 26 -13 16 -19 17 -39 4z m30 -8 c0 -13 -12 -22 -22 -16 -10 6 -1 24 13 24 5 0 9 -4 9 -8z"/> <path d="M412 1448 c-7 -7 -12 -15 -12 -20 0 -12 28 2 34 18 7 17 -6 18 -22 2z"/> <path d="M1136 1323 c3 -71 8 -130 10 -132 2 -2 4 55 4 127 0 84 -4 132 -10 132 -7 0 -9 -43 -4 -127z"/> <path d="M1193 1443 c9 -2 23 -2 30 0 6 3 -1 5 -18 5 -16 0 -22 -2 -12 -5z"/> <path d="M1248 1443 c7 -3 16 -2 19 1 4 3 -2 6 -13 5 -11 0 -14 -3 -6 -6z"/> <path d="M2696 1441 c-4 -5 -2 -12 3 -15 5 -4 12 -2 15 3 4 5 2 12 -3 15 -5 4 -12 2 -15 -3z"/> <path d="M893 1401 l-42 -6 56 -93 c30 -52 57 -91 60 -88 3 3 -13 39 -36 81 -22 42 -41 80 -41 84 0 4 17 12 38 18 41 12 29 13 -35 4z"/> <path d="M1312 1377 l-32 -33 30 -29 c30 -29 30 -29 32 -149 l2 -121 6 120 c3 66 7 116 8 111 1 -6 11 0 22 12 11 12 33 24 48 28 15 3 40 10 56 15 16 5 41 9 56 9 14 0 35 7 46 16 18 14 16 15 -21 9 -22 -4 -51 -9 -65 -11 -129 -20 -125 -18 -130 -45 l-5 -26 -30 31 -30 31 27 26 c24 24 27 25 31 8 7 -25 33 -34 60 -21 22 10 22 11 -4 11 -14 1 -34 10 -44 21 -24 26 -26 26 -63 -13z"/> <path d="M2028 1400 c43 -10 49 -17 33 -41 -21 -35 -5 -32 22 4 l26 35 -37 6 c-52 8 -84 6 -44 -4z"/> <path d="M2309 1403 c31 -3 41 -9 45 -26 4 -18 4 -18 3 3 -2 22 -7 25 -45 26 l-42 1 39 -4z"/> <path d="M2101 1365 c-49 -57 -39 -58 30 -3 22 18 42 26 52 22 10 -3 17 -1 17 5 0 6 -15 11 -34 11 -26 0 -41 -8 -65 -35z"/> <path d="M1528 1383 c6 -2 18 -2 25 0 6 3 1 5 -13 5 -14 0 -19 -2 -12 -5z"/> <path d="M1755 1373 c-16 -11 -17 -15 -6 -22 11 -7 10 -11 -5 -20 -17 -9 -17 -10 -1 -11 9 0 17 -5 17 -11 0 -6 9 -8 20 -5 11 3 29 9 40 12 11 3 20 1 20 -5 0 -5 -16 -13 -35 -17 -19 -3 -38 -11 -42 -17 -4 -6 7 -7 31 -3 20 4 36 3 36 -2 0 -6 -16 -13 -35 -16 -19 -4 -35 -11 -35 -16 0 -13 12 -13 44 0 14 5 26 6 26 1 0 -10 -25 -21 -48 -21 -15 0 -17 -11 -14 -85 3 -79 5 -84 22 -75 23 13 30 13 30 0 0 -5 -11 -12 -24 -16 -14 -3 -27 -12 -30 -20 -4 -12 -2 -12 15 -4 11 6 25 10 32 7 6 -2 -2 -10 -18 -18 -24 -12 -30 -21 -33 -54 -1 -22 -7 -41 -12 -43 -17 -6 -11 -20 10 -27 33 -10 58 11 58 49 0 19 3 39 7 45 3 6 2 11 -4 11 -5 0 -13 -4 -16 -10 -7 -12 -35 -14 -35 -2 0 4 13 13 30 19 22 8 30 17 29 35 -1 25 8 177 16 270 2 32 0 60 -5 63 -5 3 -26 2 -45 -4 -19 -5 -35 -6 -35 -1 0 5 10 10 23 12 17 2 18 5 7 9 -9 4 -25 0 -35 -8z m85 -22 c0 -8 -52 -31 -71 -31 -24 0 -5 18 29 27 20 6 38 11 40 12 1 0 2 -3 2 -8z m-10 -150 c0 -5 -9 -11 -20 -14 -20 -5 -26 3 -13 16 9 10 33 8 33 -2z m-10 -41 c-16 -11 -40 -13 -40 -5 0 8 44 24 50 18 2 -2 -2 -8 -10 -13z m-4 -35 c-23 -17 -36 -19 -36 -6 0 11 18 19 40 20 11 0 10 -3 -4 -14z m-1 -35 c-3 -5 -13 -10 -21 -10 -8 0 -12 5 -9 10 3 6 13 10 21 10 8 0 12 -4 9 -10z m-5 -139 c0 -5 -9 -11 -20 -14 -22 -6 -28 8 -7 16 19 8 27 8 27 -2z m-4 -39 c-8 -13 -46 -22 -46 -11 0 10 42 30 49 23 1 -1 0 -7 -3 -12z"/> <path d="M2230 1380 c14 -4 34 -6 46 -3 38 8 47 -20 45 -130 -2 -149 -9 -186 -35 -192 -11 -2 -59 -12 -106 -21 -47 -9 -87 -19 -90 -21 -6 -7 91 3 178 18 l62 11 0 128 c0 132 5 147 40 130 8 -4 40 -10 70 -13 l55 -6 -64 14 c-36 8 -66 17 -69 19 -2 2 1 14 7 25 11 20 13 20 46 4 35 -16 35 -16 63 10 20 19 35 26 48 21 16 -5 16 -4 4 5 -21 15 -24 14 -54 -16 -26 -26 -27 -26 -61 -10 -33 16 -35 16 -54 -8 -25 -33 -31 -31 -31 10 l0 35 -62 -1 c-46 -1 -56 -3 -38 -9z"/> <path d="M496 1361 c-4 -5 -2 -12 3 -15 5 -4 12 -2 15 3 4 5 2 12 -3 15 -5 4 -12 2 -15 -3z"/> <path d="M605 1353 c11 -3 24 -10 28 -17 6 -7 7 -6 4 4 -2 8 -14 16 -28 17 -19 1 -20 1 -4 -4z"/> <path d="M2715 1336 c-61 -23 -105 -44 -105 -50 0 -5 148 42 170 54 28 15 31 12 19 -13 -9 -20 -23 -26 -92 -37 -55 -9 -75 -15 -62 -20 22 -8 28 -7 98 4 51 9 85 41 73 71 -7 19 -28 18 -101 -9z"/> <path d="M260 1320 c0 -5 5 -10 11 -10 5 0 7 5 4 10 -3 6 -8 10 -11 10 -2 0 -4 -4 -4 -10z"/> <path d="M1536 1314 c-32 -8 -64 -14 -70 -13 -6 1 -22 1 -36 0 -20 -1 -22 -3 -10 -11 8 -5 31 -7 50 -4 93 15 140 26 140 35 0 11 0 11 -74 -7z"/> <path d="M525 1288 c-68 -11 -85 -22 -84 -52 1 -19 2 -18 8 4 5 20 16 26 51 32 25 4 60 10 78 13 17 3 32 2 32 -3 0 -5 -30 -13 -67 -18 -64 -8 -68 -11 -71 -36 -4 -33 -9 -34 -42 -11 -20 13 -22 14 -13 2 7 -9 10 -19 6 -23 -4 -4 1 -4 11 0 14 5 17 4 12 -4 -4 -7 -1 -12 9 -12 14 0 16 -16 13 -130 -2 -72 1 -130 5 -130 4 0 7 70 6 156 0 86 2 159 6 162 3 4 34 12 68 17 44 7 62 14 62 25 0 19 -16 20 -90 8z"/> <path d="M1740 1290 c0 -5 5 -10 10 -10 6 0 10 5 10 10 0 6 -4 10 -10 10 -5 0 -10 -4 -10 -10z"/> <path d="M2349 1257 c4 -25 6 -27 9 -10 3 21 7 22 65 18 l62 -4 -50 9 c-27 5 -59 11 -71 14 -18 5 -20 2 -15 -27z"/> <path d="M2505 1270 c-11 -5 -15 -9 -8 -9 6 -1 19 -8 27 -17 13 -12 16 -40 16 -135 l0 -119 -24 0 c-32 0 -39 12 -25 46 15 42 -6 54 -73 42 -37 -7 -53 -6 -58 2 -5 8 -9 7 -14 -5 -3 -9 -6 -20 -6 -24 0 -7 74 1 127 14 21 5 21 5 -4 -41 -14 -25 -24 -46 -22 -48 2 -2 57 -6 122 -10 l117 -7 0 60 c0 33 3 68 6 78 3 10 -2 5 -11 -10 -9 -16 -16 -40 -15 -55 4 -51 2 -53 -37 -50 l-38 3 -3 88 c-2 69 0 87 10 81 17 -11 98 -22 93 -14 -3 4 -21 10 -42 13 -21 3 -46 8 -55 12 -16 7 -18 -1 -18 -90 0 -61 -4 -94 -10 -90 -6 4 -10 60 -10 135 0 112 -2 130 -17 140 -16 9 -15 10 7 8 21 -3 26 -9 31 -48 l6 -45 1 41 c3 58 -22 76 -73 54z"/> <path d="M1680 1258 c-19 -5 -44 -13 -55 -18 -30 -15 -229 -69 -234 -64 -2 2 1 4 8 4 7 0 10 4 7 8 -3 5 0 9 7 10 43 4 114 27 127 40 13 14 13 15 0 5 -9 -7 -39 -13 -68 -14 -29 -2 -55 -6 -58 -10 -2 -5 -10 -6 -17 -3 -10 4 -13 -25 -11 -128 2 -133 -4 -179 -18 -123 -4 18 -5 7 -2 -25 4 -40 2 -51 -5 -40 -6 8 -11 26 -12 40 0 19 -2 21 -7 8 -5 -13 -11 -15 -22 -8 -8 5 -35 9 -60 9 l-45 -1 55 -8 c41 -6 58 -14 72 -33 12 -17 25 -23 38 -20 17 5 18 2 11 -25 -5 -17 -7 -33 -3 -36 3 -3 -5 -17 -18 -31 l-23 -25 111 0 c68 0 112 4 112 10 0 6 12 10 28 10 21 0 24 -2 12 -10 -29 -19 32 -11 114 14 51 16 74 20 65 11 -8 -7 -30 -18 -49 -23 -37 -9 130 -7 256 4 55 5 61 8 57 25 -7 26 18 25 42 -1 21 -23 7 -23 275 6 74 8 174 21 223 30 l87 16 0 44 0 44 -137 -6 c-162 -6 -206 -12 -198 -25 4 -5 35 -7 73 -4 37 3 100 7 140 9 40 2 75 6 79 9 14 15 23 5 23 -27 0 -35 -10 -40 -97 -51 -12 -2 -34 -6 -50 -9 -34 -8 -70 -12 -193 -25 -168 -18 -187 -17 -217 7 -15 12 -31 22 -34 22 -10 0 -36 -27 -41 -42 -3 -8 -38 -14 -111 -16 l-107 -4 3 45 4 46 -33 -14 c-30 -12 -34 -12 -34 1 0 10 -13 3 -35 -21 -20 -20 -33 -41 -29 -47 4 -6 -1 -8 -15 -3 -12 4 -21 2 -21 -4 0 -6 -5 -11 -11 -11 -5 0 -8 4 -5 8 3 5 0 9 -7 10 -40 5 -54 9 -66 16 -7 5 -18 3 -24 -3 -9 -9 -8 -11 6 -6 9 4 17 3 17 -3 0 -15 -26 -22 -79 -22 l-47 0 3 43 c5 104 15 254 18 272 1 11 3 32 4 48 1 26 20 40 71 52 8 2 53 15 100 29 76 22 103 26 88 11 -2 -3 -37 -13 -76 -23 -40 -10 -74 -20 -76 -23 -14 -14 98 2 130 19 22 11 44 18 49 16 6 -2 11 7 11 21 1 14 -2 25 -7 25 -5 0 -9 -5 -9 -11 0 -8 -4 -8 -12 -2 -8 6 -26 7 -48 1z m-230 -98 c0 -5 -4 -10 -9 -10 -5 0 -18 -3 -28 -6 -16 -5 -16 -4 1 10 23 18 36 20 36 6z m-4 -39 c-8 -12 -46 -21 -46 -11 0 9 18 18 38 19 7 1 11 -3 8 -8z m-11 -40 c-8 -13 -35 -15 -35 -2 0 5 8 11 18 13 21 5 26 2 17 -11z m5 -30 c0 -5 -9 -11 -20 -14 -22 -6 -28 8 -7 16 19 8 27 8 27 -2z m-5 -41 c-3 -5 -13 -10 -21 -10 -8 0 -14 5 -14 10 0 6 9 10 21 10 11 0 17 -4 14 -10z m5 -29 c0 -5 -9 -11 -20 -14 -22 -6 -28 8 -7 16 19 8 27 8 27 -2z m-10 -41 c0 -5 -7 -10 -15 -10 -8 0 -15 -5 -15 -11 0 -6 7 -9 15 -5 8 3 15 1 15 -3 0 -5 -6 -11 -14 -14 -17 -7 -28 16 -20 38 7 17 34 21 34 5z m0 -70 c0 -5 -7 -10 -15 -10 -8 0 -15 5 -15 10 0 6 7 10 15 10 8 0 15 -4 15 -10z m377 -27 c-10 -9 -110 -43 -115 -39 -3 4 43 28 78 39 22 8 44 8 37 0z m-382 -13 c-3 -5 -10 -10 -16 -10 -5 0 -9 5 -9 10 0 6 7 10 16 10 8 0 12 -4 9 -10z m-5 -29 c0 -5 -7 -11 -15 -15 -15 -5 -20 5 -8 17 9 10 23 9 23 -2z"/> <path d="M2353 1180 c0 -25 2 -35 4 -22 2 12 2 32 0 45 -2 12 -4 2 -4 -23z"/> <path d="M355 1173 c-25 -6 -35 -21 -35 -51 0 -16 -8 -26 -30 -33 -16 -6 -32 -20 -36 -32 -4 -12 -13 -27 -21 -32 -10 -8 -13 -25 -10 -60 l3 -50 2 53 c3 71 19 66 24 -8 2 -44 -1 -61 -11 -65 -17 -7 -121 40 -121 55 0 6 16 20 35 32 45 26 36 39 -10 14 -38 -21 -50 -42 -35 -61 13 -15 93 -50 135 -59 l30 -7 -2 100 -3 99 30 7 c26 6 30 11 30 41 0 36 10 45 54 48 13 0 22 4 19 9 -5 8 -16 8 -48 0z"/> <path d="M2615 1170 c11 -5 27 -9 35 -9 13 -1 13 0 0 9 -8 5 -24 9 -35 9 -20 0 -20 0 0 -9z"/> <path d="M1702 1067 c-2 -80 1 -99 13 -104 20 -7 21 -6 28 35 4 18 2 32 -3 32 -6 0 -10 -13 -10 -30 0 -16 -4 -30 -10 -30 -5 0 -11 44 -13 98 l-3 97 -2 -98z"/> <path d="M1724 1144 c4 -12 11 -42 16 -65 l9 -44 -4 54 c-2 30 -9 59 -16 65 -8 8 -10 6 -5 -10z"/> <path d="M353 1142 c-7 -5 -12 -55 -15 -148 l-3 -140 94 -16 95 -17 156 30 c85 16 164 33 175 38 35 16 -82 2 -213 -25 -109 -22 -131 -24 -199 -14 -42 6 -78 11 -79 13 -1 1 -4 62 -6 136 -3 124 -2 134 15 137 11 1 21 5 25 8 8 9 -31 7 -45 -2z"/> <path d="M2351 1114 c0 -11 3 -14 6 -6 3 7 2 16 -1 19 -3 4 -6 -2 -5 -13z"/> <path d="M2700 1079 c0 -5 4 -8 9 -5 5 4 16 3 25 0 13 -5 16 -21 14 -88 l-2 -81 -6 70 -6 70 -2 -60 c-2 -66 5 -105 20 -105 5 0 34 12 64 26 56 27 68 50 39 74 -9 7 -13 15 -10 18 7 8 45 -29 45 -44 0 -21 -55 -60 -104 -74 -26 -7 -43 -17 -39 -21 5 -5 32 2 61 16 29 14 56 25 61 25 5 0 14 13 21 30 10 25 10 34 -4 55 -17 25 -40 33 -51 16 -3 -5 -1 -12 5 -16 25 -15 5 -65 -26 -65 -2 0 -5 26 -6 58 l-2 57 -3 -54 c-2 -29 -10 -60 -18 -68 -12 -12 -13 -6 -9 39 3 29 7 61 9 71 2 9 -1 15 -6 11 -5 -3 -9 2 -9 10 0 8 -7 22 -16 30 -17 18 -54 22 -54 5z"/> <path d="M443 1005 c0 -44 2 -61 4 -37 2 23 2 59 0 80 -2 20 -4 1 -4 -43z"/> <path d="M282 1010 c0 -19 2 -27 5 -17 2 9 2 25 0 35 -3 9 -5 1 -5 -18z"/> <path d="M122 1010 c-64 -39 -56 -84 20 -122 29 -14 67 -29 83 -32 17 -4 38 -17 48 -29 10 -13 16 -16 15 -7 -5 24 -20 34 -78 53 -136 42 -158 98 -55 143 16 7 23 13 15 14 -8 0 -30 -9 -48 -20z"/> <path d="M1567 1017 c-37 -7 -51 -15 -62 -38 -14 -25 -14 -28 0 -23 18 7 20 -16 3 -36 -11 -12 -10 -12 3 -2 9 7 23 10 32 6 10 -3 22 4 32 20 10 14 21 23 26 20 5 -3 9 0 9 5 0 19 -35 12 -48 -9 -14 -24 -32 -26 -32 -5 0 8 -5 15 -12 15 -6 0 -3 6 8 14 14 11 21 11 26 3 7 -11 12 -3 10 14 -1 4 4 6 11 6 34 -1 100 3 96 7 -12 10 -60 12 -102 3z"/> <path d="M1618 982 c12 -12 18 -14 20 -5 2 6 11 9 20 7 15 -5 15 -4 2 5 -8 6 -25 11 -37 11 -22 0 -22 -1 -5 -18z"/> <path d="M2100 991 c0 -9 95 -21 166 -21 47 0 43 7 57 -90 3 -14 6 7 7 45 1 39 5 60 7 47 4 -22 5 -23 18 -5 8 10 15 21 15 26 0 4 -61 7 -135 7 -74 0 -135 -4 -135 -9z"/> <path d="M1149 904 c-15 -16 -19 -24 -9 -22 11 2 14 -4 12 -22 -2 -23 0 -22 28 13 18 20 36 37 43 37 6 0 -2 -13 -18 -30 -19 -20 -24 -30 -14 -30 8 0 22 9 32 20 10 12 22 18 27 15 15 -9 12 4 -4 21 -17 16 -42 18 -51 4 -4 -6 -11 -8 -16 -4 -5 3 -7 10 -4 15 11 17 -1 9 -26 -17z m25 -15 c-3 -5 -10 -7 -15 -3 -5 3 -7 10 -3 15 3 5 10 7 15 3 5 -3 7 -10 3 -15z"/> <path d="M1257 919 c7 -7 26 -13 42 -13 38 -1 27 10 -19 19 -28 6 -33 5 -23 -6z"/> <path d="M2351 884 c0 -11 3 -14 6 -6 3 7 2 16 -1 19 -3 4 -6 -2 -5 -13z"/> <path d="M780 849 c-47 -16 -94 -33 -105 -38 -11 -6 -39 -15 -62 -22 -24 -7 -43 -15 -43 -18 0 -3 14 -15 30 -26 16 -11 30 -23 30 -26 0 -3 -36 -17 -80 -29 -45 -13 -79 -28 -77 -34 3 -9 128 -38 136 -31 1 2 -16 9 -38 15 -47 12 -46 26 2 35 18 4 43 14 55 24 l23 17 -21 27 c-12 15 -18 27 -13 27 4 0 18 3 31 6 21 6 22 4 22 -74 0 -55 -4 -82 -12 -85 -8 -3 -6 -6 4 -6 15 -1 18 12 21 87 3 84 3 83 5 -25 2 -110 3 -113 25 -112 12 0 31 4 42 9 16 7 13 9 -17 9 l-38 1 0 101 0 102 53 -7 c157 -20 239 -25 299 -20 66 6 67 6 109 -30 42 -36 92 -56 137 -56 35 0 89 28 107 57 15 22 22 24 87 22 38 -1 87 -7 108 -13 28 -7 46 -7 62 1 13 6 29 13 37 15 8 2 -52 5 -133 6 -129 2 -153 0 -193 -18 -54 -24 -70 -26 -28 -3 37 20 16 30 -26 13 -30 -13 -39 -29 -16 -31 16 -2 -42 -16 -71 -18 -13 0 -20 3 -17 9 3 6 -1 10 -10 10 -10 0 -25 11 -36 23 -17 23 -26 24 -196 32 -98 4 -205 11 -238 16 -65 8 15 6 280 -7 72 -4 127 -4 124 0 -3 3 -68 9 -145 12 -76 3 -148 7 -159 9 -11 2 -31 4 -45 4 l-25 1 25 20 c14 11 30 20 36 20 5 0 19 7 30 15 25 19 24 19 -76 -16z m602 -131 c-13 -13 -86 -38 -111 -38 -25 0 -2 14 52 31 65 21 74 22 59 7z"/> <path d="M2698 873 c6 -2 18 -2 25 0 6 3 1 5 -13 5 -14 0 -19 -2 -12 -5z"/> <path d="M298 863 c7 -3 16 -2 19 1 4 3 -2 6 -13 5 -11 0 -14 -3 -6 -6z"/> <path d="M2708 853 c7 -3 16 -2 19 1 4 3 -2 6 -13 5 -11 0 -14 -3 -6 -6z"/> <path d="M2565 829 c-55 -9 -179 -25 -275 -35 -141 -13 -179 -20 -196 -35 -25 -24 -34 -24 -34 -1 0 15 -9 17 -82 14 -123 -4 -239 -18 -273 -32 -16 -7 -25 -14 -18 -17 6 -2 27 3 47 11 22 9 88 18 167 22 126 7 130 6 145 -14 19 -28 32 -28 61 0 28 26 18 24 208 43 83 8 192 22 244 31 59 10 97 12 103 6 18 -18 4 -56 -22 -63 -14 -4 -18 -7 -8 -8 37 -2 48 10 48 55 0 24 -3 43 -7 43 -5 -1 -53 -10 -108 -20z"/> <path d="M338 800 c4 -40 7 -43 67 -54 l30 -5 -30 14 c-16 8 -36 14 -42 15 -8 0 -13 13 -13 31 0 24 3 30 16 25 9 -3 23 -6 31 -6 9 0 14 -3 10 -6 -3 -4 1 -21 10 -38 10 -17 16 -34 15 -38 -1 -5 5 -8 13 -8 22 0 18 33 -5 48 -31 19 -24 32 18 33 29 1 22 4 -33 15 -38 7 -75 13 -80 13 -6 1 -9 -16 -7 -39z"/> <path d="M2696 823 c-9 -9 -7 -33 3 -33 12 0 22 28 12 34 -5 3 -11 3 -15 -1z"/> <path d="M308 808 c7 -7 12 -22 12 -34 0 -28 16 -40 65 -47 l40 -6 -35 11 c-19 5 -41 12 -47 14 -7 2 -13 19 -13 39 0 26 -4 35 -17 35 -13 0 -14 -3 -5 -12z"/> <path d="M1150 790 c0 -6 10 -10 23 -10 12 0 56 -3 97 -6 41 -4 72 -3 67 1 -4 5 -35 10 -70 12 -34 2 -74 5 -89 8 -16 2 -28 0 -28 -5z"/> <path d="M2687 761 c-3 -13 -14 -21 -29 -22 -12 0 -32 -4 -43 -9 -13 -6 -5 -7 25 -3 51 6 80 27 63 44 -7 7 -12 4 -16 -10z"/> <path d="M1199 740 c24 -21 61 -27 61 -11 0 5 -6 11 -12 14 -7 2 2 4 21 5 65 2 43 12 -25 12 l-69 -1 24 -19z"/> <path d="M470 731 c0 -11 4 -21 9 -21 18 0 21 18 6 30 -13 10 -15 9 -15 -9z"/> <path d="M2585 740 c-3 -6 1 -7 9 -4 18 7 21 14 7 14 -6 0 -13 -4 -16 -10z"/> <path d="M2318 628 l-3 -101 -45 -4 c-64 -6 -63 -13 3 -13 l57 0 0 110 c0 61 -2 110 -5 110 -2 0 -6 -46 -7 -102z"/> <path d="M2351 714 c0 -11 3 -14 6 -6 3 7 2 16 -1 19 -3 4 -6 -2 -5 -13z"/> <path d="M413 705 c-12 -8 -47 -25 -77 -36 -31 -12 -56 -25 -56 -29 0 -4 -14 -13 -30 -20 -17 -7 -29 -14 -27 -17 3 -2 44 14 93 35 130 57 144 64 144 74 0 13 -23 9 -47 -7z"/> <path d="M2805 710 c-8 -13 13 -40 30 -40 15 0 28 27 19 41 -7 12 -41 11 -49 -1z m38 -6 c11 -11 -3 -24 -18 -18 -8 4 -12 10 -9 15 6 11 18 12 27 3z"/> <path d="M235 700 c3 -5 8 -10 11 -10 2 0 4 5 4 10 0 6 -5 10 -11 10 -5 0 -7 -4 -4 -10z"/> <path d="M2351 654 c0 -11 3 -14 6 -6 3 7 2 16 -1 19 -3 4 -6 -2 -5 -13z"/> <path d="M325 619 c-60 -22 -99 -37 -85 -34 14 3 43 8 65 11 22 3 49 9 60 14 48 20 83 28 92 19 4 -4 35 -10 68 -13 l60 -5 -62 11 c-41 7 -63 16 -63 24 0 20 -11 17 -135 -27z"/> <path d="M2538 643 c7 -3 16 -2 19 1 4 3 -2 6 -13 5 -11 0 -14 -3 -6 -6z"/> <path d="M2478 633 c7 -3 16 -2 19 1 4 3 -2 6 -13 5 -11 0 -14 -3 -6 -6z"/> <path d="M2348 613 c6 -2 18 -2 25 0 6 3 1 5 -13 5 -14 0 -19 -2 -12 -5z"/> <path d="M2351 584 c0 -11 3 -14 6 -6 3 7 2 16 -1 19 -3 4 -6 -2 -5 -13z"/> <path d="M1243 575 c-25 -10 -33 -20 -33 -39 0 -29 35 -66 62 -66 11 0 18 -7 18 -19 0 -11 4 -23 10 -26 8 -5 99 -6 215 -3 11 0 34 0 50 -1 135 -6 180 3 168 35 -3 8 0 15 6 15 6 1 15 2 21 3 21 3 50 37 50 60 0 52 -22 56 -290 56 -188 -1 -253 -4 -277 -15z m530 -16 c18 -10 23 -44 7 -54 -13 -8 -525 -9 -539 -1 -17 11 -13 44 6 55 22 12 502 12 526 0z m-271 -114 c-3 -14 -195 -10 -200 4 -3 8 25 11 100 9 62 -2 102 -7 100 -13z m113 0 c0 -12 -50 -19 -71 -11 -9 3 -12 11 -9 16 8 14 80 9 80 -5z m103 3 c-7 -19 -78 -22 -78 -3 0 11 11 15 41 15 28 0 39 -4 37 -12z"/> <path d="M615 568 c-89 -17 -125 -47 -95 -83 9 -11 20 -10 68 6 44 15 62 17 78 9 11 -7 36 -10 55 -7 l34 4 -37 1 c-30 2 -38 6 -38 21 0 18 -2 18 -62 1 -35 -10 -71 -21 -80 -25 -10 -4 -18 -3 -18 2 0 23 39 42 98 49 42 4 62 11 62 20 0 8 -3 13 -7 13 -5 -1 -30 -6 -58 -11z"/> <path d="M723 549 c-54 -16 -42 -39 20 -40 28 0 74 -4 101 -8 44 -7 47 -7 31 6 -11 7 -26 11 -33 8 -7 -3 -33 0 -58 6 -40 10 -43 13 -27 25 21 15 12 16 -34 3z"/> <path d="M2351 533 c-1 -32 -3 -33 -42 -33 -22 0 -38 -4 -35 -8 8 -13 77 -1 83 13 2 8 3 24 0 37 -3 17 -5 15 -6 -9z"/> <path d="M2515 551 c31 -13 93 -24 75 -13 -8 5 -33 12 -55 16 -26 4 -33 3 -20 -3z"/> <path d="M1937 543 c-4 -3 -7 -31 -7 -62 0 -31 -4 -61 -8 -68 -4 -7 -36 -13 -75 -14 -71 -2 -87 -13 -87 -57 0 -34 23 -42 122 -43 138 -1 138 -1 138 124 0 67 -4 107 -12 115 -13 13 -60 16 -71 5z m63 -118 l0 -105 -110 0 -110 0 0 31 0 31 80 -4 80 -3 0 77 0 78 30 0 30 0 0 -105z"/> <path d="M2685 520 c3 -5 8 -10 11 -10 2 0 4 5 4 10 0 6 -5 10 -11 10 -5 0 -7 -4 -4 -10z"/> <path d="M2182 513 c-41 -8 -17 -28 34 -29 l49 -2 -50 8 c-27 4 -40 8 -27 8 12 1 22 7 22 12 0 6 -1 9 -2 9 -2 -1 -13 -4 -26 -6z"/> <path d="M2678 493 c7 -3 16 -2 19 1 4 3 -2 6 -13 5 -11 0 -14 -3 -6 -6z"/> <path d="M803 483 c15 -2 37 -2 50 0 12 2 0 4 -28 4 -27 0 -38 -2 -22 -4z"/> <path d="M746 431 c-4 -5 -2 -12 3 -15 5 -4 12 -2 15 3 4 5 2 12 -3 15 -5 4 -12 2 -15 -3z"/> <path d="M2076 431 c-4 -5 -2 -12 3 -15 5 -4 12 -2 15 3 4 5 2 12 -3 15 -5 4 -12 2 -15 -3z"/> <path d="M2561 426 c-9 -11 -9 -19 1 -35 11 -19 14 -19 30 -4 13 12 15 20 7 34 -12 23 -22 24 -38 5z m27 -27 c-17 -10 -28 -2 -21 17 4 11 8 12 20 3 11 -10 11 -14 1 -20z"/> <path d="M860 396 c-30 -11 -61 -25 -68 -29 -19 -13 -14 -42 13 -67 28 -26 32 -25 115 49 67 58 44 58 -28 0 l-63 -50 -18 23 c-11 13 -19 24 -18 25 1 0 39 15 85 33 45 17 82 33 82 36 0 10 -49 0 -100 -20z"/> <path d="M2171 402 c-8 -15 -7 -23 2 -30 17 -14 40 1 35 23 -5 26 -25 30 -37 7z m29 -12 c0 -5 -4 -10 -10 -10 -5 0 -10 5 -10 10 0 6 5 10 10 10 6 0 10 -4 10 -10z"/> <path d="M482 368 c-13 -13 2 -38 23 -38 21 0 36 25 23 38 -7 7 -17 12 -23 12 -6 0 -16 -5 -23 -12z m32 -19 c-3 -5 -10 -7 -15 -3 -5 3 -7 10 -3 15 3 5 10 7 15 3 5 -3 7 -10 3 -15z"/> <path d="M1050 367 c0 -10 8 -17 18 -17 9 0 13 4 7 8 -5 4 -13 11 -17 16 -5 5 -8 2 -8 -7z"/> <path d="M2445 299 l-30 -7 31 -1 c16 0 36 -7 44 -13 12 -11 12 -10 0 7 -8 11 -14 20 -15 21 0 0 -13 -3 -30 -7z"/> <path d="M561 244 c-11 -14 -25 -23 -31 -19 -5 3 -10 1 -10 -4 0 -22 29 -10 50 19 26 37 19 40 -9 4z"/> <path d="M464 228 l-19 -23 23 19 c21 18 27 26 19 26 -2 0 -12 -10 -23 -22z"/> <path d="M890 223 c0 -13 3 -14 8 -6 6 9 60 13 192 16 l185 2 -192 3 c-178 2 -193 1 -193 -15z"/> <path d="M1313 233 c9 -2 23 -2 30 0 6 3 -1 5 -18 5 -16 0 -22 -2 -12 -5z"/> <path d="M1380 222 c-14 -16 4 -17 265 -14 472 4 507 8 120 12 l-370 5 370 5 370 5 -370 2 c-334 1 -371 0 -385 -15z"/> <path d="M385 210 c-3 -6 1 -7 9 -4 18 7 21 14 7 14 -6 0 -13 -4 -16 -10z"/> <path d="M998 213 c46 -2 118 -2 160 0 42 1 5 3 -83 3 -88 0 -123 -2 -77 -3z"/> <path d="M2625 213 c11 -3 24 -10 28 -17 6 -7 7 -6 4 4 -2 8 -14 16 -28 17 -19 1 -20 1 -4 -4z"/> <path d="M286 162 l-19 -27 24 22 c12 12 21 24 18 27 -2 2 -13 -8 -23 -22z"/> <path d="M325 170 c3 -5 8 -10 11 -10 2 0 4 5 4 10 0 6 -5 10 -11 10 -5 0 -7 -4 -4 -10z"/> <path d="M366 165 c-11 -8 -15 -15 -9 -15 6 0 16 7 23 15 16 19 11 19 -14 0z"/> <path d="M2655 171 c-3 -5 -2 -12 3 -15 5 -3 9 1 9 9 0 17 -3 19 -12 6z"/> <path d="M2688 153 c7 -3 16 -2 19 1 4 3 -2 6 -13 5 -11 0 -14 -3 -6 -6z"/> <path d="M1415 129 c-4 -6 -5 -12 -2 -15 2 -3 7 2 10 11 7 17 1 20 -8 4z"/> <path d="M1166 42 c-3 -5 1 -9 9 -9 8 0 12 4 9 9 -3 4 -7 8 -9 8 -2 0 -6 -4 -9 -8z"/> <path d="M1840 46 c0 -2 8 -10 18 -17 15 -13 16 -12 3 4 -13 16 -21 21 -21 13z"/> <path d="M53 33 c9 -2 25 -2 35 0 9 3 1 5 -18 5 -19 0 -27 -2 -17 -5z"/> </g> </svg> 