<?xml version="1.0" encoding="UTF-8"?>
<svg version="1.1" xmlns="http://www.w3.org/2000/svg" width="26" height="32">
<path d="M0 0 C1.27595098 3.82785293 1.18415169 7.4496657 1.1875 11.4375 C1.19974609 12.20126953 1.21199219 12.96503906 1.22460938 13.75195312 C1.24344632 20.96650282 1.24344632 20.96650282 -1 24 C-4.57080934 26.38053956 -6.59003798 26.5261214 -10.77734375 26.46484375 C-14.66043951 25.65273761 -15.8466707 23.19736775 -18 20 C-18.66 19.67 -19.32 19.34 -20 19 C-20 18.34 -20 17.68 -20 17 C-18.35 16.67 -16.7 16.34 -15 16 C-14.9175 15.236875 -14.835 14.47375 -14.75 13.6875 C-13.85384206 10.47626739 -12.78388975 9.70625501 -10 8 C-10.20625 7.4225 -10.4125 6.845 -10.625 6.25 C-11.09239476 3.44563145 -10.53712084 2.34613181 -9 0 C-5.93109813 -1.53445094 -3.29905734 -0.54984289 0 0 Z M-5 3 C-5.33 4.32 -5.66 5.64 -6 7 C-5.01 7.33 -4.02 7.66 -3 8 C-3.33 6.35 -3.66 4.7 -4 3 C-4.33 3 -4.66 3 -5 3 Z " fill="#DD0505" transform="translate(21,4)"/>
<path d="M0 0 C0.90238747 2.70716242 1.11851302 4.23776768 1.09765625 7.01171875 C1.09443359 7.76904297 1.09121094 8.52636719 1.08789062 9.30664062 C1.07951172 10.09232422 1.07113281 10.87800781 1.0625 11.6875 C1.05798828 12.48478516 1.05347656 13.28207031 1.04882812 14.10351562 C1.0370585 16.06904257 1.01912348 18.03453085 1 20 C0.67 19.34 0.34 18.68 0 18 C-1.98 18 -3.96 18 -6 18 C-5.67 17.01 -5.34 16.02 -5 15 C-5.78375 14.690625 -6.5675 14.38125 -7.375 14.0625 C-10 13 -10 13 -12 12 C-11.649375 11.4225 -11.29875 10.845 -10.9375 10.25 C-9.76931908 8.07695842 -9.76931908 8.07695842 -10.5 6 C-11 4 -11 4 -10.1875 1.8125 C-7.53799151 -2.23148664 -4.25979892 -0.70996649 0 0 Z M-5 3 C-5.33 4.32 -5.66 5.64 -6 7 C-5.01 7.33 -4.02 7.66 -3 8 C-3.33 6.35 -3.66 4.7 -4 3 C-4.33 3 -4.66 3 -5 3 Z " fill="#FFC619" transform="translate(21,4)"/>
<path d="M0 0 C2.475 0.99 2.475 0.99 5 2 C5 3.32 5 4.64 5 6 C5.66 6 6.32 6 7 6 C7 7.98 7 9.96 7 12 C5.35 12 3.7 12 2 12 C2.33 11.01 2.66 10.02 3 9 C2.21625 8.690625 1.4325 8.38125 0.625 8.0625 C-2 7 -2 7 -4 6 C-3.67 5.01 -3.34 4.02 -3 3 C-2.34 3 -1.68 3 -1 3 C-0.67 2.01 -0.34 1.02 0 0 Z " fill="#FEC00E" transform="translate(13,10)"/>
<path d="M0 0 C0.33 0.66 0.66 1.32 1 2 C2.64551962 2.71727778 4.31422289 3.38325228 6 4 C6.66 4.33 7.32 4.66 8 5 C8 5.66 8 6.32 8 7 C9.65 7.33 11.3 7.66 13 8 C13 9.65 13 11.3 13 13 C12.67 12.34 12.34 11.68 12 11 C11.34 11 10.68 11 10 11 C10 10.34 10 9.68 10 9 C8.35 9 6.7 9 5 9 C5 8.01 5 7.02 5 6 C2.69 5.67 0.38 5.34 -2 5 C-1.34 3.35 -0.68 1.7 0 0 Z " fill="#ED6829" transform="translate(8,14)"/>
<path d="M0 0 C0 0.99 0 1.98 0 3 C-1.62414378 3.19477739 -3.24936423 3.38059458 -4.875 3.5625 C-5.77992188 3.66691406 -6.68484375 3.77132813 -7.6171875 3.87890625 C-10 4 -10 4 -12 3 C-12 2.34 -12 1.68 -12 1 C-7.67265609 -1.22923777 -4.71599818 -0.92470553 0 0 Z " fill="#E11D17" transform="translate(13,20)"/>
<path d="M0 0 C2.375 -0.1875 2.375 -0.1875 5 0 C5.66 0.99 6.32 1.98 7 3 C9.05003955 4.19232613 9.05003955 4.19232613 11 5 C11 5.99 11 6.98 11 8 C9.35 8 7.7 8 6 8 C6.33 7.01 6.66 6.02 7 5 C6.21625 4.690625 5.4325 4.38125 4.625 4.0625 C2 3 2 3 0 2 C0 1.34 0 0.68 0 0 Z " fill="#F5921A" transform="translate(9,14)"/>
<path d="M0 0 C1.32 0 2.64 0 4 0 C4 0.66 4 1.32 4 2 C4.66 2 5.32 2 6 2 C6 2.99 6 3.98 6 5 C2.79619983 7.13586678 1.98060033 7.23132175 -1.6875 7.125 C-2.89986328 7.09792969 -2.89986328 7.09792969 -4.13671875 7.0703125 C-5.05904297 7.03550781 -5.05904297 7.03550781 -6 7 C-6 6.67 -6 6.34 -6 6 C-2.535 5.505 -2.535 5.505 1 5 C1 4.34 1 3.68 1 3 C1.66 3 2.32 3 3 3 C3 2.34 3 1.68 3 1 C2.01 0.67 1.02 0.34 0 0 Z " fill="#E11D13" transform="translate(14,23)"/>
<path d="M0 0 C1.32 0 2.64 0 4 0 C4 3.96 4 7.92 4 12 C2 10 2 10 1.875 6.875 C1.91625 5.92625 1.9575 4.9775 2 4 C1.34 4 0.68 4 0 4 C0 2.68 0 1.36 0 0 Z " fill="#FDC332" transform="translate(18,12)"/>
<path d="M0 0 C2.0625 0.4375 2.0625 0.4375 4 1 C4 2.65 4 4.3 4 6 C2.68 6 1.36 6 0 6 C-0.38218767 4.34385343 -0.71395102 2.67542976 -1 1 C-0.67 0.67 -0.34 0.34 0 0 Z " fill="#FEC61A" transform="translate(18,6)"/>
<path d="M0 0 C2.475 0.99 2.475 0.99 5 2 C4 5 4 5 1.9375 6.1875 C1.298125 6.455625 0.65875 6.72375 0 7 C-0.93423645 3.98968256 -1.04449911 3.13349732 0 0 Z " fill="#FECF3E" transform="translate(11,5)"/>
<path d="M0 0 C0.99 0.33 1.98 0.66 3 1 C4.66362417 1.34820041 6.32995171 1.68404492 8 2 C8 3.65 8 5.3 8 7 C7.67 6.34 7.34 5.68 7 5 C6.34 5 5.68 5 5 5 C5 4.34 5 3.68 5 3 C3.35 3 1.7 3 0 3 C0 2.01 0 1.02 0 0 Z " fill="#E94D10" transform="translate(13,20)"/>
<path d="M0 0 C1.65 0 3.3 0 5 0 C5.33 1.65 5.66 3.3 6 5 C4.02 4.01 2.04 3.02 0 2 C0 1.34 0 0.68 0 0 Z " fill="#F79705" transform="translate(9,14)"/>
</svg>
